<?xml version="1.0" encoding="utf-8"?>
<!-- Generator: Adobe Illustrator 22.1.0, SVG Export Plug-In . SVG Version: 6.00 Build 0)  -->
<!DOCTYPE svg PUBLIC "-//W3C//DTD SVG 1.1//EN" "http://www.w3.org/Graphics/SVG/1.1/DTD/svg11.dtd">
<svg version="1.1" id="Layer_1" xmlns="http://www.w3.org/2000/svg" xmlns:xlink="http://www.w3.org/1999/xlink" x="0px" y="0px"
	 viewBox="0 0 258 40" style="enable-background:new 0 0 258 40;" xml:space="preserve">
<style type="text/css">
	.st0{fill:#252645;}
	.st1{fill-rule:evenodd;clip-rule:evenodd;fill:#252645;}
	.st2{fill-rule:evenodd;clip-rule:evenodd;fill:#FBD30B;}
</style>
<g>
	<path class="st0" d="M198.6,10.6c-7.6,0-13.7,6.2-13.7,13.7c0,7.6,6.2,13.7,13.7,13.7c7.6,0,13.7-6.2,13.7-13.7
		C212.3,16.7,206.2,10.6,198.6,10.6z M198.6,34.7c-5.7,0-10.4-4.7-10.4-10.4c0-5.7,4.7-10.4,10.4-10.4c5.7,0,10.4,4.7,10.4,10.4
		C209,30,204.3,34.7,198.6,34.7z"/>
	<path class="st1" d="M14.7,34.7C9,34.7,4.3,30,4.3,24.3c0-5.7,4.7-10.4,10.4-10.4c3.3,0,6,1.2,8.6,3.9l2.4-2.3
		c-3.2-3.3-6.8-4.9-11-4.9C7.2,10.6,1,16.7,1,24.3C1,31.8,7.2,38,14.7,38c4.8,0,9.2-2,12-5.5l-2.6-2.1C22,33.2,18.6,34.7,14.7,34.7"
		/>
	<path class="st0" d="M130,11v3.4c-2.3-2.4-5.6-3.8-9.2-3.8c-7.4,0-13.4,6.2-13.4,13.7s6,13.7,13.4,13.7c3.6,0,6.8-1.5,9.2-3.8v3.4
		h3.2v-8.7v-9.2V11H130z M130,29.6c-2,3-5.5,5-9.2,5c-5.6,0-10.1-4.7-10.1-10.4c0-5.7,4.5-10.4,10.1-10.4c3.7,0,7.2,2,9.2,5V29.6z"
		/>
	<path class="st0" d="M83.2,34.7c-5.5,0-10-4.4-10.2-10l22.5,0c0,0,0,0,0,0c0-1.1-0.1-2.1-0.3-3c-1.1-6.6-6-11.1-12.4-11.1
		c-6.5,0-11.8,4.7-12.9,11.1c-0.2,0.9-0.2,1.7-0.2,2.6c0,0.1,0,0.3,0,0.4C69.9,32.1,75.9,38,83.2,38c4.3,0,8.2-2,10.8-5.5l-2.6-2
		C89.4,33.1,86.4,34.7,83.2,34.7z M82.9,13.9c2.7,0,5,1,6.7,3c1.1,1.3,1.9,2.9,2.3,4.6H73.3C74.4,17.1,78.2,13.9,82.9,13.9z"/>
	<path class="st1" d="M165.5,34.7c-2.5,0-4.6-1.2-5.9-3.1c-0.6-0.9-0.8-1.9-0.9-2.1c-0.2-1.2-0.3-2.5-0.3-3.3v-0.7v0V14h10.8v-3.1
		h-10.8V2H155v8.8h-6V14h6v12.7c0,0.1,0,2.2,0.5,3.9c0.1,0.3,0.2,0.5,0.3,0.8c0,0,0,0,0,0c0.8,2.1,2.5,4.4,5.8,5.8
		c1.2,0.5,2.5,0.7,3.9,0.7c5.8,0,10.5-4.6,10.5-10.3h-3.4C172.6,31.6,169.4,34.7,165.5,34.7"/>
	<path class="st1" d="M245,14.8c-2.4-2.8-5.9-4.4-9.6-4.2c-2.3,0.1-4.4,1-5.9,2.4v-2h-3.4v7.6v9.9v7.8h3.4v-2.4v-4.2V17.5v-0.1
		c1.4-2.1,3.6-3.5,6.1-3.7c0,0,0.1,0,0.1,0c0.2,0,0.5,0,0.5,0c0.4,0,0.8,0,1.2,0.1c0,0,0,0,0,0c1.2,0.2,3.1,0.9,5.1,2.8L245,14.8z"
		/>
	<path class="st1" d="M49.8,10.6c-2.3,0.1-4.4,1-5.9,2.4v-2h-3.4v7.6v9.9v7.8h3.4v-2.4v-4.2V17.5v-0.1c1.4-2.1,3.6-3.5,6.1-3.7
		c0,0,0.1,0,0.1,0c0.2,0,0.5,0,0.5,0c0.4,0,0.8,0,1.2,0.1c0,0,0,0,0,0c1.2,0.2,3.1,0.9,5.1,2.8l2.5-1.9C57,12,53.6,10.4,49.8,10.6"
		/>
	<path class="st2" d="M255,31.2c1.3,0,1.6,0.9,1.9,1.9c0.7,2.3-0.8,4.5-2.7,4.9c-1,0.2-1.9-0.2-2.5-1c-0.1-0.2-0.3-0.4-0.5-0.5
		c-1.6-1.3-1.3-3.5,0.6-4.4C253.9,31.1,253.9,31.1,255,31.2"/>
</g>
</svg>
